#!OML:ASF F:\VICON\USERDATA\INSTALL\rory3\rory3.ASF
:FULLY-SPECIFIED
:DEGREES
894
root 0.0923544 18.5173 1.70684 3.33492 -8.92308 2.21455
lowerback 7.4785 1.92778 -0.990031
upperback 3.31651 2.48283 -0.103399
thorax -0.804072 1.22845 0.249301
lowerneck -4.13465 -1.91791 -6.35055
upperneck 9.37944 -2.98677 9.32598
head 3.69203 -1.28125 3.76008
rclavicle 2.08724e-014 2.3059e-014
rhumerus -16.7826 33.0781 -93.1149
rradius 27.781
rwrist 25.6805
rhand 13.3034 0.19566
rfingers 7.12502
rthumb 38.2524 -25.5344
lclavicle 2.08724e-014 2.3059e-014
lhumerus -33.1606 -26.2916 95.3092
lradius 66.0667
lwrist -7.09438
lhand -3.64037 35.1823
lfingers 7.12502
lthumb 22.0993 63.9394
rfemur -22.0454 15.5032 9.04211
rtibia 33.148
rfoot -13.4955 -14.5617
rtoes -9.36086
lfemur -4.49149 3.62716 -18.3983
ltibia 32.1316
lfoot -20.8314 24.8505
ltoes -17.8059
895
root 0.051221 18.5214 1.71376 3.31546 -9.48798 2.24353
lowerback 7.68417 1.86738 -0.987621
upperback 3.45172 2.3997 -0.0921327
thorax -0.7776 1.18586 0.262051
lowerneck -4.01786 -1.87274 -6.37748
upperneck 9.4389 -2.95093 9.50148
head 3.68962 -1.2593 3.82202
rclavicle 2.89232e-014 -1.74931e-014
rhumerus -15.7778 33.271 -92.3031
rradius 28.7498
rwrist 25.9305
rhand 12.7125 -0.18308
rfingers 7.12502
rthumb 37.6942 -26.0648
lclavicle 2.89232e-014 -1.74931e-014
lhumerus -32.8717 -25.8699 94.9356
lradius 66.0423
lwrist -6.76863
lhand -3.76074 34.9337
lfingers 7.12502
lthumb 21.9837 63.7044
rfemur -22.1884 15.6206 9.13219
rtibia 33.1563
rfoot -13.3634 -14.2024
rtoes -9.2923
lfemur -4.74433 4.19845 -18.2455
ltibia 32.7604
lfoot -20.2744 24.6486
ltoes -18.4666
896
root 0.0146899 18.5299 1.72019 3.24519 -9.86612 2.44873
lowerback 7.92718 1.7674 -1.09368
upperback 3.5926 2.25549 -0.110723
thorax -0.767757 1.11199 0.309192
lowerneck -3.90463 -1.85619 -6.50588
upperneck 9.50102 -2.95076 9.72263
head 3.69339 -1.25639 3.91347
rclavicle 4.57205e-015 1.63003e-014
rhumerus -14.7379 33.3306 -91.4026
rradius 29.7451
rwrist 26.1438
rhand 11.9485 0.067459
rfingers 7.12502
rthumb 36.972 -26.0042
lclavicle 4.57205e-015 1.63003e-014
lhumerus -32.448 -25.6336 94.561
lradius 65.9063
lwrist -6.39256
lhand -3.64211 34.9148
lfingers 7.12502
lthumb 22.0976 63.6721
rfemur -22.2666 15.5249 9.05245
rtibia 33.2245
rfoot -13.249 -13.7624
rtoes -9.78641
lfemur -5.04533 4.55697 -18.276
ltibia 33.4866
lfoot -19.7981 24.2743
ltoes -19.143
897
root -0.0218137 18.5348 1.72727 3.15867 -10.275 2.64519
lowerback 8.17076 1.70009 -1.18885
upperback 3.75776 2.15477 -0.14547
thorax -0.73215 1.05967 0.330946
lowerneck -3.68392 -1.89494 -6.48854
upperneck 9.4148 -3.01686 9.80037
head 3.63665 -1.29205 3.9326
rclavicle 2.23633e-014 -8.74653e-015
rhumerus -13.7201 33.5029 -90.4726
rradius 30.8707
rwrist 26.1256
rhand 11.5336 0.650024
rfingers 7.12502
rthumb 36.5794 -25.522
lclavicle 2.23633e-014 -8.74653e-015
lhumerus -31.9569 -25.4997 94.1651
lradius 65.7152
lwrist -6.18929
lhand -3.88116 35.0565
lfingers 7.12502
lthumb 21.8681 63.8408
rfemur -22.3381 15.3864 8.98413
rtibia 33.3248
rfoot -13.1961 -13.2602
rtoes -10.0414
lfemur -5.35561 4.90541 -18.3055
ltibia 34.2923
lfoot -19.2462 24.0132
ltoes -20.484
898
root -0.0610027 18.5384 1.72649 3.15997 -10.7723 2.67282
lowerback 8.45769 1.67145 -1.15515
upperback 3.92265 2.11401 -0.157575
thorax -0.717505 1.03839 0.297561
lowerneck -3.55958 -1.98037 -6.32382
upperneck 9.2891 -3.13175 9.70044
head 3.58428 -1.35236 3.86876
rclavicle 8.24956e-015 8.34896e-015
rhumerus -12.5635 33.9332 -89.5211
rradius 31.9436
rwrist 25.9874
rhand 10.3768 0.827228
rfingers 7.12502
rthumb 35.4837 -25.6145
lclavicle 8.24956e-015 8.34896e-015
lhumerus -31.451 -25.3259 93.7055
lradius 65.6243
lwrist -6.27877
lhand -4.35815 34.9194
lfingers 7.12502
lthumb 21.41 63.7564
rfemur -22.5542 15.3902 9.07568
rtibia 33.4699
rfoot -13.0956 -12.7631
rtoes -9.77606
lfemur -5.77497 5.38836 -18.1439
ltibia 35.1277
lfoot -18.5311 23.8166
ltoes -21.6679
899
root -0.0971645 18.54 1.72494 3.15782 -11.2558 2.69501
lowerback 8.7728 1.63927 -1.07528
upperback 4.0733 2.0719 -0.156251
thorax -0.731724 1.01703 0.251372
lowerneck -3.37576 -2.02885 -6.25001
upperneck 9.08314 -3.18498 9.58019
head 3.49364 -1.38872 3.81707
rclavicle -2.59414e-014 2.38542e-015
rhumerus -11.3864 34.4825 -88.5161
rradius 33.0119
rwrist 25.7694
rhand 8.2294 0.852434
rfingers 7.12502
rthumb 33.4451 -26.0528
lclavicle -2.59414e-014 2.38542e-015
lhumerus -31.1298 -24.9873 93.3181
lradius 65.7221
lwrist -6.58226
lhand -4.64704 34.7611
lfingers 7.12502
lthumb 21.1325 63.6294
rfemur -22.7645 15.3875 9.16955
rtibia 33.6279
rfoot -13.071 -12.2765
rtoes -9.52804
lfemur -6.21094 5.89827 -17.9683
ltibia 36.0234
lfoot -18.0598 23.4758
ltoes -21.9424
900
root -0.129684 18.5413 1.72664 3.15659 -11.7537 2.92291
lowerback 9.05157 1.62024 -1.2167
upperback 4.16149 2.03006 -0.157052
thorax -0.797686 0.993769 0.327106
lowerneck -3.0213 -2.05629 -6.20292
upperneck 8.87548 -3.20817 9.38159
head 3.37071 -1.41833 3.74876
rclavicle 1.37161e-014 -1.15295e-014
rhumerus -10.4473 34.9508 -87.4896
rradius 34.3132
rwrist 25.4636
rhand 6.40624 0.775351
rfingers 7.12502
rthumb 31.7103 -26.4883
lclavicle 1.37161e-014 -1.15295e-014
lhumerus -31.0412 -24.3746 93.1015
lradius 65.9315
lwrist -7.09662
lhand -4.75788 34.6117
lfingers 7.12502
lthumb 21.026 63.4919
rfemur -23.0561 15.3707 9.0109
rtibia 33.8113
rfoot -13.0111 -11.8531
rtoes -9.67932
lfemur -6.70794 6.42252 -18.0518
ltibia 36.9668
lfoot -17.4874 23.2871
ltoes -22.4489
901
root -0.165086 18.5421 1.72371 3.22057 -12.2214 3.00709
lowerback 9.30776 1.5734 -1.25005
upperback 4.27723 1.96042 -0.138081
thorax -0.819051 0.957351 0.366881
lowerneck -2.74706 -2.07739 -6.03667
upperneck 8.64384 -3.21912 9.11153
head 3.25053 -1.43862 3.63879
rclavicle -6.95746e-015 -1.98785e-015
rhumerus -9.39097 35.2039 -86.4978
rradius 35.5628
rwrist 25.3789
rhand 4.10211 0.872252
rfingers 7.12502
rthumb 29.5132 -26.8021
lclavicle -6.95746e-015 -1.98785e-015
lhumerus -30.6656 -23.8109 92.6916
lradius 66.0472
lwrist -7.46115
lhand -4.7454 34.5132
lfingers 7.12502
lthumb 21.038 63.3921
rfemur -23.4201 15.4466 9.01453
rtibia 34.0225
rfoot -12.874 -11.6369
rtoes -10.0158
lfemur -7.31112 6.96392 -17.955
ltibia 37.9496
lfoot -16.6853 23.1285
ltoes -23.2565
902
root -0.200477 18.5432 1.71846 3.32734 -12.6007 3.13219
lowerback 9.53444 1.5012 -1.22624
upperback 4.40898 1.86111 -0.206819
thorax -0.802176 0.907384 0.288695
lowerneck -2.65332 -2.11564 -5.93317
upperneck 8.47713 -3.26405 9.04324
head 3.18625 -1.46462 3.59905
rclavicle -4.90004e-014 1.43125e-014
rhumerus -8.22572 35.4228 -85.5477
rradius 36.7142
rwrist 25.3254
rhand 0.570756 0.894227
rfingers 7.12502
rthumb 26.1369 -27.3268
lclavicle -4.90004e-014 1.43125e-014
lhumerus -30.002 -23.5729 92.0878
lradius 65.926
lwrist -7.54724
lhand -5.1226 34.3993
lfingers 7.12502
lthumb 20.6756 63.318
rfemur -23.8332 15.4535 8.96712
rtibia 34.2798
rfoot -12.8507 -11.4067
rtoes -9.93701
lfemur -8.0502 7.39065 -17.8941
ltibia 38.9898
lfoot -15.7874 22.9246
ltoes -23.9714
903
root -0.233688 18.5427 1.71674 3.38872 -12.9004 3.44218
lowerback 9.80585 1.43931 -1.35437
upperback 4.49861 1.76074 -0.310961
thorax -0.856683 0.855894 0.257842
lowerneck -2.5692 -2.15916 -5.87363
upperneck 8.41526 -3.32094 8.98788
head 3.15651 -1.49585 3.57043
rclavicle 2.28602e-015 1.43125e-014
rhumerus -7.16685 35.6909 -84.6067
rradius 37.8528
rwrist 25.1127
rhand -2.49509 0.707269
rfingers 7.12502
rthumb 23.1985 -27.9156
lclavicle 2.28602e-015 1.43125e-014
lhumerus -29.4917 -23.348 91.6011
lradius 65.8431
lwrist -7.78726
lhand -5.37403 34.4049
lfingers 7.12502
lthumb 20.434 63.3497
rfemur -24.192 15.3572 8.7199
rtibia 34.5361
rfoot -12.9275 -11.1397
rtoes -9.88392
lfemur -8.82487 7.73837 -18.0433
ltibia 40.1447
lfoot -15.0001 22.6772
ltoes -24.3249
904
root -0.263866 18.5391 1.71222 3.45737 -13.2204 3.71283
lowerback 10.1227 1.39445 -1.41844
upperback 4.57431 1.68738 -0.380632
thorax -0.949837 0.818581 0.222955
lowerneck -2.53909 -2.19695 -6.05797
upperneck 8.50575 -3.38208 9.14008
head 3.18819 -1.52587 3.64597
rclavicle -3.77691e-015 1.98785e-014
rhumerus -6.15364 35.8631 -83.5923
rradius 39.0502
rwrist 24.8835
rhand -4.86223 0.690835
rfingers 7.12502
rthumb 20.9258 -28.2005
lclavicle -3.77691e-015 1.98785e-014
lhumerus -29.0848 -23.1107 91.2175
lradius 65.9035
lwrist -8.09523
lhand -5.46615 34.7102
lfingers 7.12502
lthumb 20.3455 63.6645
rfemur -24.5766 15.2829 8.4987
rtibia 34.8053
rfoot -13.0256 -10.8409
rtoes -9.62718
lfemur -9.66353 8.1539 -18.1464
ltibia 41.4305
lfoot -14.3197 22.3509
ltoes -23.8167
905
root -0.295252 18.5369 1.70402 3.57977 -13.5592 3.75614
lowerback 10.4735 1.33571 -1.31881
upperback 4.65397 1.61129 -0.371284
thorax -1.05517 0.781162 0.177893
lowerneck -2.54205 -2.22268 -6.48772
upperneck 8.62378 -3.43785 9.56413
head 3.24116 -1.54979 3.84644
rclavicle -2.16675e-014 1.47101e-014
rhumerus -5.08982 35.8876 -82.5718
rradius 40.158
rwrist 24.995
rhand -7.98267 1.20898
rfingers 7.12502
rthumb 17.9255 -27.9849
lclavicle -2.16675e-014 1.47101e-014
lhumerus -28.6326 -22.7284 90.8571
lradius 65.8781
lwrist -8.48238
lhand -5.76121 34.8914
lfingers 7.12502
lthumb 20.0619 63.8756
rfemur -25.0139 15.215 8.54287
rtibia 35.0734
rfoot -13.0241 -10.5952
rtoes -9.68205
lfemur -10.6169 8.5693 -17.994
ltibia 42.8299
lfoot -13.3618 22.1944
ltoes -22.7571
906
root -0.328623 18.5274 1.69126 3.72996 -13.8513 3.72884
lowerback 10.8998 1.26439 -1.2144
upperback 4.70709 1.5193 -0.316632
thorax -1.22994 0.735777 0.177443
lowerneck -2.56231 -2.23171 -6.68475
upperneck 8.66648 -3.44989 9.66446
head 3.26289 -1.55727 3.90978
rclavicle 2.66371e-014 -3.97569e-016
rhumerus -4.02287 35.9845 -81.5638
rradius 41.1755
rwrist 25.0754
rhand -10.9989 1.55252
rfingers 7.12502
rthumb 15.0215 -27.8826
lclavicle 2.66371e-014 -3.97569e-016
lhumerus -28.198 -22.2907 90.4911
lradius 65.865
lwrist -8.84131
lhand -6.28758 34.7095
lfingers 7.12502
lthumb 19.5559 63.746
rfemur -25.4684 15.1967 8.65642
rtibia 35.3316
rfoot -12.9636 -10.4413
rtoes -9.70315
lfemur -11.6986 8.97207 -17.7405
ltibia 44.3431
lfoot -12.1719 22.089
ltoes -21.7339
